<?xml version="1.0" encoding="UTF-8" standalone="no"?><!DOCTYPE svg PUBLIC "-//W3C//DTD SVG 1.1//EN" "http://www.w3.org/Graphics/SVG/1.1/DTD/svg11.dtd"><svg width="100%" height="100%" viewBox="0 0 1024 1024" version="1.1" xmlns="http://www.w3.org/2000/svg" xmlns:xlink="http://www.w3.org/1999/xlink" xml:space="preserve" xmlns:serif="http://www.serif.com/" style="fill-rule:evenodd;clip-rule:evenodd;stroke-linejoin:round;stroke-miterlimit:2;"><g id="Version-1" serif:id="Version 1"><g><path d="M608.709,705.451c69.409,-35.729 126.365,-129.421 183.959,-52.583c48.627,64.873 -86.547,176.011 -194.358,195.586c-106.839,19.398 -299.776,-13.659 -352.78,-115.119c-74.992,-143.55 32.35,-235.316 177.461,-334.285c167.221,-114.049 67.812,-204.929 5.57,-191.742c-102.152,21.643 -114.476,80.631 -191.179,77.618c-128.996,-5.067 -75.289,-106.558 43.197,-171.206c197.29,-107.646 445.563,76.164 392.581,218.834c-70.903,190.932 -369.041,225.605 -303.339,330.873c36.761,58.901 146.63,89.514 238.888,42.024Z" style="fill:#ef0;"/><path d="M477.281,958.879c-23.33,-45.547 58.792,-68.91 69.042,-18.742c7.48,36.61 -50.517,54.907 -69.042,18.742Z" style="fill:#ef0;"/></g><g><path d="M0.988,-1l-0,605.76l1022.02,-605.76l-1022.02,0Z" style="fill:#ff5656;"/><path d="M1023.01,-1l0,605.76l-497.086,-311.134l497.086,-294.626Z" style="fill:#ff38b3;"/><path d="M1023.01,604.76l-367.918,418.24l367.918,0l0,-418.24Z" style="fill:#559ee4;"/><path d="M0.988,604.76l-0,418.24l373.66,0l-373.66,-418.24Z" style="fill:#6cffb9;"/></g></g></svg>